<svg width="1000" height="800" 
                   viewBox="0 0 1000 800"
                   xmlns="http://www.w3.org/2000/svg"
                   style="background-color: white;">
  <style>
    .node-rect, .node-circle, .node-rhombus, .node-stadium, .node-default {
      stroke-width: 2;
    }
    .light, .dark, .neutral { color: #333; }
    text { font-family: sans-serif; font-size: 12px; fill: #333; }
    .edge-label {
      font-size: 10px;
      fill: #333;
    }
    .node-label {
      font-size: 12px;
      fill: #333;
      font-weight: 500;
    }
    .node-label-bg {
      opacity: 0.9;
    }
  </style>
  <rect x="445.2" y="40" width="109.6" height="40"
             class="node-rect dark" stroke="currentColor" fill="none"/>
       
      <rect x="449.2" y="53"
            width="101.6" height="14"
            fill="white" stroke="none" rx="2" opacity="0.9" class="node-label-bg"/>
      <text x="500" y="61" text-anchor="middle"
            font-size="12" fill="#333" class="node-label">trusted setup</text>
  <rect x="410" y="220" width="60" height="40"
             class="node-rect dark" stroke="currentColor" fill="none"/>
       
      <rect x="414.4" y="233"
            width="51.199999999999996" height="14"
            fill="white" stroke="none" rx="2" opacity="0.9" class="node-label-bg"/>
      <text x="440" y="241" text-anchor="middle"
            font-size="12" fill="#333" class="node-label">prover</text>
  <rect x="523.2" y="220" width="73.6" height="40"
             class="node-rect dark" stroke="currentColor" fill="none"/>
       
      <rect x="527.2" y="233"
            width="65.6" height="14"
            fill="white" stroke="none" rx="2" opacity="0.9" class="node-label-bg"/>
      <text x="560" y="241" text-anchor="middle"
            font-size="12" fill="#333" class="node-label">verifier</text>
  <rect x="312" y="400" width="376" height="40"
             class="node-rect dark" stroke="currentColor" fill="none"/>
       
      <rect x="316" y="413"
            width="368" height="14"
            fill="white" stroke="none" rx="2" opacity="0.9" class="node-label-bg"/>
      <text x="500" y="421" text-anchor="middle"
            font-size="12" fill="#333" class="node-label">generate zk proof using secret + public parameters</text>
  <rect x="456" y="580" width="88" height="40"
             class="node-rect dark" stroke="currentColor" fill="none"/>
       
      <rect x="460" y="593"
            width="80" height="14"
            fill="white" stroke="none" rx="2" opacity="0.9" class="node-label-bg"/>
      <text x="500" y="601" text-anchor="middle"
            font-size="12" fill="#333" class="node-label">send proof</text>
  <polygon points="307.36,780 500,760 692.64,780 500,800"
               class="node-rhombus dark" stroke="currentColor" fill="none"/>
       
      <rect x="366.4" y="773"
            width="267.2" height="14"
            fill="white" stroke="none" rx="2" opacity="0.9" class="node-label-bg"/>
      <text x="500" y="781" text-anchor="middle"
            font-size="12" fill="#333" class="node-label">verify proof using public parameters</text>
  <rect x="403.2" y="940" width="73.6" height="40"
             class="node-rect dark" stroke="currentColor" fill="none"/>
       
      <rect x="407.2" y="953"
            width="65.6" height="14"
            fill="white" stroke="none" rx="2" opacity="0.9" class="node-label-bg"/>
      <text x="440" y="961" text-anchor="middle"
            font-size="12" fill="#333" class="node-label">✅ accept</text>
  <rect x="523.2" y="940" width="73.6" height="40"
             class="node-rect dark" stroke="currentColor" fill="none"/>
       
      <rect x="527.2" y="953"
            width="65.6" height="14"
            fill="white" stroke="none" rx="2" opacity="0.9" class="node-label-bg"/>
      <text x="560" y="961" text-anchor="middle"
            font-size="12" fill="#333" class="node-label">❌ reject</text>
  <path d="M 492.6666666666667 82 L 447.3333333333333 218" stroke="currentColor" stroke-width="1" stroke-dasharray="none" fill="none"/>
          <polygon points="447.3333333333333,218 445.72949037115194,210.16241824587064 453.31895675555603,212.69224037400537" fill="currentColor"/>
          
  <path d="M 507.3333333333333 82 L 552.6666666666666 218" stroke="currentColor" stroke-width="1" stroke-dasharray="none" fill="none"/>
          <polygon points="552.6666666666666,218 546.6810432444439,212.69224037400537 554.270509628848,210.16241824587064" fill="currentColor"/>
          
  <path d="M 447.3333333333333 262 L 492.6666666666667 398" stroke="currentColor" stroke-width="1" stroke-dasharray="none" fill="none"/>
          <polygon points="492.6666666666667,398 486.68104324444397,392.69224037400534 494.27050962884806,390.16241824587064" fill="currentColor"/>
          
  <path d="M 500 442 L 500 578" stroke="currentColor" stroke-width="1" stroke-dasharray="none" fill="none"/>
          <polygon points="500,578 496,571.0717967697245 504,571.0717967697245" fill="currentColor"/>
          
  <path d="M 500 622 L 500 757" stroke="currentColor" stroke-width="1" stroke-dasharray="none" fill="none"/>
          <polygon points="500,757 496,750.0717967697245 504,750.0717967697245" fill="currentColor"/>
          
  <path d="M 492.60764530778306 802.1770640766508 L 447.3333333333333 938" stroke="currentColor" stroke-width="1" stroke-dasharray="none" fill="none"/>
          <polygon points="447.3333333333333,938 445.72949037115194,930.1624182458706 453.31895675555603,932.6922403740053" fill="currentColor"/>
          
      <rect x="401.3333333333333" y="919"
            width="92" height="14"
            fill="white" stroke="none" rx="2" opacity="0.9"/>
      <text x="447.3333333333333" y="927" text-anchor="middle"
            font-size="10" fill="#333" class="edge-label">Proof is valid</text>
  <path d="M 507.39235469221694 802.1770640766508 L 552.6666666666666 938" stroke="currentColor" stroke-width="1" stroke-dasharray="none" fill="none"/>
          <polygon points="552.6666666666666,938 546.6810432444439,932.6922403740053 554.270509628848,930.1624182458706" fill="currentColor"/>
          
      <rect x="500.66666666666663" y="919"
            width="104" height="14"
            fill="white" stroke="none" rx="2" opacity="0.9"/>
      <text x="552.6666666666666" y="927" text-anchor="middle"
            font-size="10" fill="#333" class="edge-label">Proof is invalid</text>
</svg>