<svg width="1000" height="800" 
                   viewBox="0 0 1000 800"
                   xmlns="http://www.w3.org/2000/svg"
                   style="background-color: white;">
  <style>
    .node-rect, .node-circle, .node-rhombus, .node-default { 
      stroke-width: 2; 
    }
    .light { color: #333; }
    .dark { color: #333; }
    .neutral { color: #666; }
    text { font-family: sans-serif; font-size: 12px; fill: #333; }
    .edge-label { 
      font-size: 10px; 
      fill: #333;
      text-shadow: 0 0 3px white, 0 0 3px white, 0 0 3px white;
    }
  </style>
  <rect x="40" y="40" width="80" height="40" rx="5" 
             class="node-default dark" stroke="currentColor" fill="none"/>
       <text x="80" y="60" text-anchor="middle" dominant-baseline="central">user input</text>
  <polygon points="160,60 200,40 240,60 200,80" 
               class="node-rhombus dark" stroke="currentColor" fill="none"/>
       <text x="200" y="60" text-anchor="middle" dominant-baseline="central">validate</text>
  <rect x="280" y="40" width="80" height="40" 
             class="node-rect dark" stroke="currentColor" fill="none"/>
       <text x="320" y="60" text-anchor="middle" dominant-baseline="central">process data</text>
  <rect x="400" y="40" width="80" height="40" 
             class="node-rect dark" stroke="currentColor" fill="none"/>
       <text x="440" y="60" text-anchor="middle" dominant-baseline="central">show error</text>
  <rect x="520" y="40" width="80" height="40" 
             class="node-rect dark" stroke="currentColor" fill="none"/>
       <text x="560" y="60" text-anchor="middle" dominant-baseline="central">(database)</text>
  <rect x="640" y="40" width="80" height="40" 
             class="node-rect dark" stroke="currentColor" fill="none"/>
       <text x="680" y="60" text-anchor="middle" dominant-baseline="central">generate report</text>
  <circle cx="800" cy="60" r="30" 
              class="node-circle dark" stroke="currentColor" fill="none"/>
       <text x="800" y="60" text-anchor="middle" dominant-baseline="central">success</text>
  <rect x="880" y="40" width="80" height="40" 
             class="node-rect dark" stroke="currentColor" fill="none"/>
       <text x="920" y="60" text-anchor="middle" dominant-baseline="central">retry</text>
  <path d="M 125 60 L 155 60" 
               stroke="currentColor" 
               stroke-width="1"
               stroke-dasharray="none"
               fill="none"/>
          <polygon points="155,60 148.0717967697245,64 148.0717967697245,56" 
                     fill="currentColor"/>
          
  <path d="M 245 60 L 275 60" 
               stroke="currentColor" 
               stroke-width="1"
               stroke-dasharray="none"
               fill="none"/>
          <polygon points="275,60 268.0717967697245,64 268.0717967697245,56" 
                     fill="currentColor"/>
          <text x="275" y="55" 
           text-anchor="middle" font-size="10" fill="currentColor" 
           class="edge-label">Valid</text>
  <path d="M 245 60 L 248 120 L 392 120 L 395 60" 
               stroke="currentColor" 
               stroke-width="1"
               stroke-dasharray="none"
               fill="none"/>
          <polygon points="395,60 398.64903139648845,67.11930964823428 390.6590126854657,66.71980871268313" 
                     fill="currentColor"/>
          <text x="392" y="115" 
           text-anchor="middle" font-size="10" fill="currentColor" 
           class="edge-label">Invalid</text>
  <path d="M 365 60 L 368 120 L 512 120 L 515 60" 
               stroke="currentColor" 
               stroke-width="1"
               stroke-dasharray="none"
               fill="none"/>
          <polygon points="515,60 518.6490313964885,67.11930964823428 510.6590126854657,66.71980871268313" 
                     fill="currentColor"/>
          
  <path d="M 605 60 L 635 60" 
               stroke="currentColor" 
               stroke-width="1"
               stroke-dasharray="none"
               fill="none"/>
          <polygon points="635,60 628.0717967697245,64 628.0717967697245,56" 
                     fill="currentColor"/>
          
  <path d="M 725 60 L 755 60" 
               stroke="currentColor" 
               stroke-width="1"
               stroke-dasharray="none"
               fill="none"/>
          <polygon points="755,60 748.0717967697245,64 748.0717967697245,56" 
                     fill="currentColor"/>
          
  <path d="M 485 60 L 536 120 L 824 120 L 875 60" 
               stroke="currentColor" 
               stroke-width="1"
               stroke-dasharray="none"
               fill="none"/>
          <polygon points="875,60 873.5607173948491,67.86946412295717 867.4652028527734,62.68827676219284" 
                     fill="currentColor"/>
          
  <path d="M 875 60 L 752 120 L 248 120 L 125 60" 
               stroke="currentColor" 
               stroke-width="1"
               stroke-dasharray="none"
               fill="none"/>
          <polygon points="125,60 132.9805449764654,59.44241424102429 129.47315592029412,66.63256180617549" 
                     fill="currentColor"/>
          
</svg>