<svg width="1000" height="800" 
                   viewBox="0 0 1000 800"
                   xmlns="http://www.w3.org/2000/svg"
                   style="background-color: white;">
  <style>
    .node-rect, .node-circle, .node-rhombus, .node-stadium, .node-default {
      stroke-width: 2;
    }
    .light, .dark, .neutral { color: #333; }
    text { font-family: sans-serif; font-size: 12px; fill: #333; }
    .edge-label {
      font-size: 10px;
      fill: #333;
    }
    .node-label {
      font-size: 12px;
      fill: #333;
      font-weight: 500;
    }
    .node-label-bg {
      opacity: 0.9;
    }
  </style>
  <rect x="470" y="40" width="60" height="40"
             class="node-rect dark" stroke="currentColor" fill="none"/>
       
      <rect x="478" y="53"
            width="44" height="14"
            fill="white" stroke="none" rx="2" opacity="0.9" class="node-label-bg"/>
      <text x="500" y="61" text-anchor="middle"
            font-size="12" fill="#333" class="node-label">start</text>
  <polygon points="448.48,240 500,220 551.52,240 500,260"
               class="node-rhombus dark" stroke="currentColor" fill="none"/>
       
      <rect x="467.2" y="233"
            width="65.6" height="14"
            fill="white" stroke="none" rx="2" opacity="0.9" class="node-label-bg"/>
      <text x="500" y="241" text-anchor="middle"
            font-size="12" fill="#333" class="node-label">decision</text>
  <rect x="399.6" y="400" width="80.8" height="40"
             class="node-rect dark" stroke="currentColor" fill="none"/>
       
      <rect x="403.6" y="413"
            width="72.8" height="14"
            fill="white" stroke="none" rx="2" opacity="0.9" class="node-label-bg"/>
      <text x="440" y="421" text-anchor="middle"
            font-size="12" fill="#333" class="node-label">process a</text>
  <rect x="519.6" y="400" width="80.8" height="40"
             class="node-rect dark" stroke="currentColor" fill="none"/>
       
      <rect x="523.6" y="413"
            width="72.8" height="14"
            fill="white" stroke="none" rx="2" opacity="0.9" class="node-label-bg"/>
      <text x="560" y="421" text-anchor="middle"
            font-size="12" fill="#333" class="node-label">process b</text>
  <rect x="470" y="580" width="60" height="40"
             class="node-rect dark" stroke="currentColor" fill="none"/>
       
      <rect x="485.2" y="593"
            width="29.599999999999998" height="14"
            fill="white" stroke="none" rx="2" opacity="0.9" class="node-label-bg"/>
      <text x="500" y="601" text-anchor="middle"
            font-size="12" fill="#333" class="node-label">end</text>
  <path d="M 500 82 L 500 217" stroke="currentColor" stroke-width="1" stroke-dasharray="none" fill="none"/>
          <polygon points="500,217 496,210.0717967697245 504,210.0717967697245" fill="currentColor"/>
          
  <path d="M 493.14847527206865 260.55457418379405 L 447.3333333333333 398" stroke="currentColor" stroke-width="1" stroke-dasharray="none" fill="none"/>
          <polygon points="447.3333333333333,398 445.72949037115194,390.16241824587064 453.31895675555603,392.69224037400534" fill="currentColor"/>
          
      <rect x="434.3333333333333" y="379"
            width="26" height="14"
            fill="white" stroke="none" rx="2" opacity="0.9"/>
      <text x="447.3333333333333" y="387" text-anchor="middle"
            font-size="10" fill="#333" class="edge-label">Yes</text>
  <path d="M 506.85152472793135 260.55457418379405 L 552.6666666666666 398" stroke="currentColor" stroke-width="1" stroke-dasharray="none" fill="none"/>
          <polygon points="552.6666666666666,398 546.6810432444439,392.69224037400534 554.270509628848,390.16241824587064" fill="currentColor"/>
          
      <rect x="542.6666666666666" y="379"
            width="20" height="14"
            fill="white" stroke="none" rx="2" opacity="0.9"/>
      <text x="552.6666666666666" y="387" text-anchor="middle"
            font-size="10" fill="#333" class="edge-label">No</text>
  <path d="M 447.3333333333333 442 L 492.6666666666667 578" stroke="currentColor" stroke-width="1" stroke-dasharray="none" fill="none"/>
          <polygon points="492.6666666666667,578 486.68104324444397,572.6922403740053 494.27050962884806,570.1624182458706" fill="currentColor"/>
          
  <path d="M 552.6666666666666 442 L 507.3333333333333 578" stroke="currentColor" stroke-width="1" stroke-dasharray="none" fill="none"/>
          <polygon points="507.3333333333333,578 505.72949037115194,570.1624182458706 513.3189567555561,572.6922403740053" fill="currentColor"/>
          
</svg>