<svg width="1000" height="800" 
                   viewBox="0 0 1000 800"
                   xmlns="http://www.w3.org/2000/svg"
                   style="background-color: white;">
  <style>
    .node-rect, .node-circle, .node-rhombus, .node-stadium, .node-default {
      stroke-width: 2;
    }
    .light, .dark, .neutral { color: #333; }
    text { font-family: sans-serif; font-size: 12px; fill: #333; }
    .edge-label {
      font-size: 10px;
      fill: #333;
    }
    .node-label {
      font-size: 12px;
      fill: #333;
      font-weight: 500;
    }
    .node-label-bg {
      opacity: 0.9;
    }
  </style>
  <rect x="446" y="40" width="108" height="40"
             rx="20" class="node-stadium dark" stroke="currentColor" fill="none"/>
       
      <rect x="460" y="53"
            width="80" height="14"
            fill="white" stroke="none" rx="2" opacity="0.9" class="node-label-bg"/>
      <text x="500" y="61" text-anchor="middle"
            font-size="12" fill="#333" class="node-label">user input</text>
  <polygon points="448.48,240 500,220 551.52,240 500,260"
               class="node-rhombus dark" stroke="currentColor" fill="none"/>
       
      <rect x="467.2" y="233"
            width="65.6" height="14"
            fill="white" stroke="none" rx="2" opacity="0.9" class="node-label-bg"/>
      <text x="500" y="241" text-anchor="middle"
            font-size="12" fill="#333" class="node-label">validate</text>
  <rect x="388.8" y="400" width="102.39999999999999" height="40"
             class="node-rect dark" stroke="currentColor" fill="none"/>
       
      <rect x="392.8" y="413"
            width="94.39999999999999" height="14"
            fill="white" stroke="none" rx="2" opacity="0.9" class="node-label-bg"/>
      <text x="440" y="421" text-anchor="middle"
            font-size="12" fill="#333" class="node-label">process data</text>
  <rect x="516" y="400" width="88" height="40"
             class="node-rect dark" stroke="currentColor" fill="none"/>
       
      <rect x="520" y="413"
            width="80" height="14"
            fill="white" stroke="none" rx="2" opacity="0.9" class="node-label-bg"/>
      <text x="560" y="421" text-anchor="middle"
            font-size="12" fill="#333" class="node-label">show error</text>
  <rect x="396" y="580" width="88" height="40"
             class="node-rect dark" stroke="currentColor" fill="none"/>
       
      <rect x="400" y="593"
            width="80" height="14"
            fill="white" stroke="none" rx="2" opacity="0.9" class="node-label-bg"/>
      <text x="440" y="601" text-anchor="middle"
            font-size="12" fill="#333" class="node-label">(database)</text>
  <rect x="438" y="760" width="124" height="40"
             class="node-rect dark" stroke="currentColor" fill="none"/>
       
      <rect x="442" y="773"
            width="116" height="14"
            fill="white" stroke="none" rx="2" opacity="0.9" class="node-label-bg"/>
      <text x="500" y="781" text-anchor="middle"
            font-size="12" fill="#333" class="node-label">generate report</text>
  <circle cx="500" cy="960" r="41.43130521954985"
               class="node-circle dark" stroke="currentColor" fill="none"/>
       
      <rect x="470.8" y="953"
            width="58.4" height="14"
            fill="white" stroke="none" rx="2" opacity="0.9" class="node-label-bg"/>
      <text x="500" y="961" text-anchor="middle"
            font-size="12" fill="#333" class="node-label">success</text>
  <rect x="530" y="580" width="60" height="40"
             class="node-rect dark" stroke="currentColor" fill="none"/>
       
      <rect x="538" y="593"
            width="44" height="14"
            fill="white" stroke="none" rx="2" opacity="0.9" class="node-label-bg"/>
      <text x="560" y="601" text-anchor="middle"
            font-size="12" fill="#333" class="node-label">retry</text>
  <path d="M 500 82 L 500 217" stroke="currentColor" stroke-width="1" stroke-dasharray="none" fill="none"/>
          <polygon points="500,217 496,210.0717967697245 504,210.0717967697245" fill="currentColor"/>
          
  <path d="M 493.14847527206865 260.55457418379405 L 447.3333333333333 398" stroke="currentColor" stroke-width="1" stroke-dasharray="none" fill="none"/>
          <polygon points="447.3333333333333,398 445.72949037115194,390.16241824587064 453.31895675555603,392.69224037400534" fill="currentColor"/>
          
      <rect x="428.3333333333333" y="379"
            width="38" height="14"
            fill="white" stroke="none" rx="2" opacity="0.9"/>
      <text x="447.3333333333333" y="387" text-anchor="middle"
            font-size="10" fill="#333" class="edge-label">Valid</text>
  <path d="M 506.85152472793135 260.55457418379405 L 552.6666666666666 398" stroke="currentColor" stroke-width="1" stroke-dasharray="none" fill="none"/>
          <polygon points="552.6666666666666,398 546.6810432444439,392.69224037400534 554.270509628848,390.16241824587064" fill="currentColor"/>
          
      <rect x="527.6666666666666" y="379"
            width="50" height="14"
            fill="white" stroke="none" rx="2" opacity="0.9"/>
      <text x="552.6666666666666" y="387" text-anchor="middle"
            font-size="10" fill="#333" class="edge-label">Invalid</text>
  <path d="M 440 442 L 440 578" stroke="currentColor" stroke-width="1" stroke-dasharray="none" fill="none"/>
          <polygon points="440,578 436,571.0717967697245 444,571.0717967697245" fill="currentColor"/>
          
  <path d="M 447.3333333333333 622 L 492.6666666666667 758" stroke="currentColor" stroke-width="1" stroke-dasharray="none" fill="none"/>
          <polygon points="492.6666666666667,758 486.68104324444397,752.6922403740053 494.27050962884806,750.1624182458706" fill="currentColor"/>
          
  <path d="M 500 802 L 500 916.5686947804502" stroke="currentColor" stroke-width="1" stroke-dasharray="none" fill="none"/>
          <polygon points="500,916.5686947804502 496,909.6404915501747 504,909.6404915501747" fill="currentColor"/>
          
  <path d="M 560 442 L 560 578" stroke="currentColor" stroke-width="1" stroke-dasharray="none" fill="none"/>
          <polygon points="560,578 556,571.0717967697245 564,571.0717967697245" fill="currentColor"/>
          
  <path d="M 557.5555555555555 578 L 600.76 465 L 641.52 195 L 540.76 195 L 502.44444444444446 82" stroke="currentColor" stroke-width="1" stroke-dasharray="none" fill="none"/>
          <polygon points="502.44444444444446,82 508.45737191981,87.27680804805273 500.8810583616194,89.84575196880637" fill="currentColor"/>
          
</svg>