<svg width="1000" height="800" 
                   viewBox="0 0 1000 800"
                   xmlns="http://www.w3.org/2000/svg"
                   style="background-color: white;">
  <style>
    .node-rect, .node-circle, .node-rhombus, .node-default { 
      stroke-width: 2; 
    }
    .light, .dark, .neutral { color: #333; }
    text { font-family: sans-serif; font-size: 12px; fill: #333; }
    .edge-label { 
      font-size: 10px; 
      fill: #333;
      text-shadow: 0 0 3px white, 0 0 3px white, 0 0 3px white;
    }
  </style>
  <polygon points="460,420 500,400 540,420 500,440" class="node-rhombus dark" stroke="currentColor" fill="none"/>
       <text x="500" y="420" text-anchor="middle" dominant-baseline="central">Decision</text>
  <rect x="400" y="40" width="80" height="40" class="node-rect dark" stroke="currentColor" fill="none"/>
       <text x="440" y="60" text-anchor="middle" dominant-baseline="central">Process A</text>
  <rect x="460" y="220" width="80" height="40" class="node-rect dark" stroke="currentColor" fill="none"/>
       <text x="500" y="240" text-anchor="middle" dominant-baseline="central">Process</text>
  <rect x="520" y="40" width="80" height="40" class="node-rect dark" stroke="currentColor" fill="none"/>
       <text x="560" y="60" text-anchor="middle" dominant-baseline="central">Process B</text>
  <path d="M 500 420 L 500 420" stroke="currentColor" stroke-width="1" stroke-dasharray="none" fill="none"/>
          <polygon points="500,420 493.0717967697245,424 493.0717967697245,416" fill="currentColor"/>
          
  <path d="M 448.3333333333333 85 L 491.6666666666667 215" stroke="currentColor" stroke-width="1" stroke-dasharray="none" fill="none"/>
          <polygon points="491.6666666666667,215 485.68104324444397,209.69224037400537 493.27050962884806,207.16241824587064" fill="currentColor"/>
          
  <path d="M 551.6666666666666 85 L 508.3333333333333 215" stroke="currentColor" stroke-width="1" stroke-dasharray="none" fill="none"/>
          <polygon points="508.3333333333333,215 506.72949037115194,207.16241824587067 514.3189567555561,209.69224037400537" fill="currentColor"/>
          
</svg>