<svg width="800" height="600" 
                   viewBox="0 0 800 600"
                   xmlns="http://www.w3.org/2000/svg"
                   style="background-color: white;">
  <style>
    .node-rect, .node-circle, .node-rhombus, .node-default { 
      stroke-width: 2; 
    }
    .light, .dark, .neutral { color: #333; }
    text { font-family: sans-serif; font-size: 12px; fill: #333; }
    .edge-label { 
      font-size: 10px; 
      fill: #333;
      text-shadow: 0 0 3px white, 0 0 3px white, 0 0 3px white;
    }
  </style>
  <rect x="360" y="40" width="80" height="40" class="node-rect light" stroke="currentColor" fill="none"/>
       <text x="400" y="60" text-anchor="middle" dominant-baseline="central">Users</text>
  <rect x="360" y="220" width="80" height="40" class="node-rect light" stroke="currentColor" fill="none"/>
       <text x="400" y="240" text-anchor="middle" dominant-baseline="central">Posts</text>
  <rect x="300" y="400" width="80" height="40" class="node-rect light" stroke="currentColor" fill="none"/>
       <text x="340" y="420" text-anchor="middle" dominant-baseline="central">Comments</text>
  <rect x="420" y="400" width="80" height="40" class="node-rect light" stroke="currentColor" fill="none"/>
       <text x="460" y="420" text-anchor="middle" dominant-baseline="central">Tags</text>
  <path d="M 400 85 L 400 215" stroke="currentColor" stroke-width="1" stroke-dasharray="none" fill="none"/>
          <polygon points="400,215 396,208.0717967697245 404,208.0717967697245" fill="currentColor"/>
          
  <path d="M 395.8333333333333 85 L 500 168 L 500 312 L 344.1666666666667 395" stroke="currentColor" stroke-width="1" stroke-dasharray="none" fill="none"/>
          <polygon points="344.1666666666667,395 348.40120376414603,388.2126076015843 352.1619894578877,395.2735205004769" fill="currentColor"/>
          
  <path d="M 391.6666666666667 265 L 348.3333333333333 395" stroke="currentColor" stroke-width="1" stroke-dasharray="none" fill="none"/>
          <polygon points="348.3333333333333,395 346.72949037115194,387.16241824587064 354.31895675555603,389.69224037400534" fill="currentColor"/>
          
  <path d="M 408.3333333333333 265 L 451.6666666666667 395" stroke="currentColor" stroke-width="1" stroke-dasharray="none" fill="none"/>
          <polygon points="451.6666666666667,395 445.68104324444397,389.69224037400534 453.27050962884806,387.16241824587064" fill="currentColor"/>
          
</svg>