<svg width="800" height="600" 
                   viewBox="0 0 800 600"
                   xmlns="http://www.w3.org/2000/svg"
                   style="background-color: white;">
  <style>
    .node-rect, .node-circle, .node-rhombus, .node-default { 
      stroke-width: 2; 
    }
    .light, .dark, .neutral { color: #333; }
    text { font-family: sans-serif; font-size: 12px; fill: #333; }
    .edge-label { 
      font-size: 10px; 
      fill: #333;
      text-shadow: 0 0 3px white, 0 0 3px white, 0 0 3px white;
    }
  </style>
  <rect x="360" y="40" width="80" height="40" class="node-rect light" stroke="currentColor" fill="none"/>
       <text x="400" y="60" text-anchor="middle" dominant-baseline="central">Trusted Setup</text>
  <rect x="300" y="220" width="80" height="40" class="node-rect light" stroke="currentColor" fill="none"/>
       <text x="340" y="240" text-anchor="middle" dominant-baseline="central">Prover</text>
  <rect x="420" y="220" width="80" height="40" class="node-rect light" stroke="currentColor" fill="none"/>
       <text x="460" y="240" text-anchor="middle" dominant-baseline="central">Verifier</text>
  <rect x="360" y="400" width="80" height="40" class="node-rect light" stroke="currentColor" fill="none"/>
       <text x="400" y="420" text-anchor="middle" dominant-baseline="central">Generate ZK proof</text>
  <rect x="360" y="580" width="80" height="40" class="node-rect light" stroke="currentColor" fill="none"/>
       <text x="400" y="600" text-anchor="middle" dominant-baseline="central">Send proof</text>
  <polygon points="360,780 400,760 440,780 400,800" class="node-rhombus light" stroke="currentColor" fill="none"/>
       <text x="400" y="780" text-anchor="middle" dominant-baseline="central">Verify proof</text>
  <rect x="300" y="940" width="80" height="40" class="node-rect light" stroke="currentColor" fill="none"/>
       <text x="340" y="960" text-anchor="middle" dominant-baseline="central">✅ Accept</text>
  <rect x="420" y="940" width="80" height="40" class="node-rect light" stroke="currentColor" fill="none"/>
       <text x="460" y="960" text-anchor="middle" dominant-baseline="central">❌ Reject</text>
  <path d="M 391.6666666666667 85 L 348.3333333333333 215" stroke="currentColor" stroke-width="1" stroke-dasharray="none" fill="none"/>
          <polygon points="348.3333333333333,215 346.72949037115194,207.16241824587064 354.31895675555603,209.69224037400537" fill="currentColor"/>
          
  <path d="M 408.3333333333333 85 L 451.6666666666667 215" stroke="currentColor" stroke-width="1" stroke-dasharray="none" fill="none"/>
          <polygon points="451.6666666666667,215 445.68104324444397,209.69224037400537 453.27050962884806,207.16241824587064" fill="currentColor"/>
          
  <path d="M 348.3333333333333 265 L 391.6666666666667 395" stroke="currentColor" stroke-width="1" stroke-dasharray="none" fill="none"/>
          <polygon points="391.6666666666667,395 385.68104324444397,389.69224037400534 393.27050962884806,387.16241824587064" fill="currentColor"/>
          
  <path d="M 400 445 L 400 575" stroke="currentColor" stroke-width="1" stroke-dasharray="none" fill="none"/>
          <polygon points="400,575 396,568.0717967697245 404,568.0717967697245" fill="currentColor"/>
          
  <path d="M 400 625 L 400 755" stroke="currentColor" stroke-width="1" stroke-dasharray="none" fill="none"/>
          <polygon points="400,755 396,748.0717967697245 404,748.0717967697245" fill="currentColor"/>
          
  <path d="M 391.6666666666667 805 L 348.3333333333333 935" stroke="currentColor" stroke-width="1" stroke-dasharray="none" fill="none"/>
          <polygon points="348.3333333333333,935 346.72949037115194,927.1624182458706 354.31895675555603,929.6922403740053" fill="currentColor"/>
          <text x="348.3333333333333" y="930" text-anchor="middle" font-size="10" fill="currentColor" class="edge-label">Valid</text>
  <path d="M 408.3333333333333 805 L 451.6666666666667 935" stroke="currentColor" stroke-width="1" stroke-dasharray="none" fill="none"/>
          <polygon points="451.6666666666667,935 445.68104324444397,929.6922403740053 453.27050962884806,927.1624182458706" fill="currentColor"/>
          <text x="451.6666666666667" y="930" text-anchor="middle" font-size="10" fill="currentColor" class="edge-label">Invalid</text>
</svg>