<svg width="800" height="600" 
                   viewBox="0 0 800 600"
                   xmlns="http://www.w3.org/2000/svg"
                   style="background-color: white;">
  <style>
    .node-rect, .node-circle, .node-rhombus, .node-default { 
      stroke-width: 2; 
    }
    .light, .dark, .neutral { color: #333; }
    text { font-family: sans-serif; font-size: 12px; fill: #333; }
    .edge-label { 
      font-size: 10px; 
      fill: #333;
      text-shadow: 0 0 3px white, 0 0 3px white, 0 0 3px white;
    }
  </style>
  <rect x="360" y="40" width="80" height="40" class="node-rect light" stroke="currentColor" fill="none"/>
       <text x="400" y="60" text-anchor="middle" dominant-baseline="central">User Login</text>
  <polygon points="360,240 400,220 440,240 400,260" class="node-rhombus light" stroke="currentColor" fill="none"/>
       <text x="400" y="240" text-anchor="middle" dominant-baseline="central">Valid Credentials?</text>
  <rect x="300" y="400" width="80" height="40" class="node-rect light" stroke="currentColor" fill="none"/>
       <text x="340" y="420" text-anchor="middle" dominant-baseline="central">Generate JWT</text>
  <rect x="420" y="400" width="80" height="40" class="node-rect light" stroke="currentColor" fill="none"/>
       <text x="460" y="420" text-anchor="middle" dominant-baseline="central">Show Error</text>
  <rect x="360" y="580" width="80" height="40" class="node-rect light" stroke="currentColor" fill="none"/>
       <text x="400" y="600" text-anchor="middle" dominant-baseline="central">Redirect to Dashboard</text>
  <path d="M 400 85 L 400 215" stroke="currentColor" stroke-width="1" stroke-dasharray="none" fill="none"/>
          <polygon points="400,215 396,208.0717967697245 404,208.0717967697245" fill="currentColor"/>
          
  <path d="M 391.6666666666667 265 L 348.3333333333333 395" stroke="currentColor" stroke-width="1" stroke-dasharray="none" fill="none"/>
          <polygon points="348.3333333333333,395 346.72949037115194,387.16241824587064 354.31895675555603,389.69224037400534" fill="currentColor"/>
          <text x="348.3333333333333" y="390" text-anchor="middle" font-size="10" fill="currentColor" class="edge-label">Yes</text>
  <path d="M 408.3333333333333 265 L 451.6666666666667 395" stroke="currentColor" stroke-width="1" stroke-dasharray="none" fill="none"/>
          <polygon points="451.6666666666667,395 445.68104324444397,389.69224037400534 453.27050962884806,387.16241824587064" fill="currentColor"/>
          <text x="451.6666666666667" y="390" text-anchor="middle" font-size="10" fill="currentColor" class="edge-label">No</text>
  <path d="M 348.3333333333333 445 L 391.6666666666667 575" stroke="currentColor" stroke-width="1" stroke-dasharray="none" fill="none"/>
          <polygon points="391.6666666666667,575 385.68104324444397,569.6922403740053 393.27050962884806,567.1624182458706" fill="currentColor"/>
          
  <path d="M 455.8333333333333 395 L 560 312 L 560 168 L 404.1666666666667 85" stroke="currentColor" stroke-width="1" stroke-dasharray="none" fill="none"/>
          <polygon points="404.1666666666667,85 412.1619894578877,84.72647949952312 408.40120376414603,91.7873923984157" fill="currentColor"/>
          
</svg>